<?xml version="1.0" encoding="UTF-8"?>
<!DOCTYPE svg PUBLIC "-//W3C//DTD SVG 1.1//EN" "http://www.w3.org/Graphics/SVG/1.1/DTD/svg11.dtd">
<svg version="1.1" xmlns="http://www.w3.org/2000/svg" xmlns:xlink="http://www.w3.org/1999/xlink" x="0" y="0" width="1024" height="1024" viewBox="0, 0, 1024, 1024">
  <g id="Background">
    <rect x="0" y="0" width="1024" height="1024" fill="#000000" fill-opacity="0"/>
  </g>
  <defs>
    <clipPath id="Clip_1">
      <path d="M119,117 L585,117 L585,203 L119,203 z M512,128 L192,128 L128,192 L576,192 L512,128 z"/>
    </clipPath>
    <filter id="Shadow_2">
      <feGaussianBlur in="SourceAlpha" stdDeviation="4"/>
      <feOffset dx="0" dy="2" result="offsetblur"/>
      <feFlood flood-color="#000000"/>
      <feComposite in2="offsetblur" operator="in"/>
    </filter>
    <clipPath id="Clip_3">
      <path d="M119,501 L585,501 L585,587 L119,587 z M576,512 L128,512 L192,576 L512,576 L576,512 z"/>
    </clipPath>
    <filter id="Shadow_4">
      <feGaussianBlur in="SourceAlpha" stdDeviation="4"/>
      <feOffset dx="0" dy="2" result="offsetblur"/>
      <feFlood flood-color="#000000"/>
      <feComposite in2="offsetblur" operator="in"/>
    </filter>
    <clipPath id="Clip_5">
      <path d="M247,309 L585,309 L585,395 L247,395 z M512,320 L256,320 L256,384 L576,384 L512,320 z"/>
    </clipPath>
    <filter id="Shadow_6">
      <feGaussianBlur in="SourceAlpha" stdDeviation="4"/>
      <feOffset dx="0" dy="2" result="offsetblur"/>
      <feFlood flood-color="#000000"/>
      <feComposite in2="offsetblur" operator="in"/>
    </filter>
    <clipPath id="Clip_7">
      <path d="M439,437 L905,437 L905,523 L439,523 z M832,448 L512,448 L448,512 L896,512 L832,448 z"/>
    </clipPath>
    <filter id="Shadow_8">
      <feGaussianBlur in="SourceAlpha" stdDeviation="4"/>
      <feOffset dx="0" dy="2" result="offsetblur"/>
      <feFlood flood-color="#000000"/>
      <feComposite in2="offsetblur" operator="in"/>
    </filter>
    <clipPath id="Clip_9">
      <path d="M487,629 L905,629 L905,715 L487,715 z M896,640 L496,640 L496,704 L832,704 L896,640 z"/>
    </clipPath>
    <filter id="Shadow_10">
      <feGaussianBlur in="SourceAlpha" stdDeviation="4"/>
      <feOffset dx="0" dy="2" result="offsetblur"/>
      <feFlood flood-color="#000000"/>
      <feComposite in2="offsetblur" operator="in"/>
    </filter>
  </defs>
  <g id="レイヤー_1">
    <g>
      <path d="M128,192 L192,192 L192,512 L128,512 L128,192 z" fill="#60B241"/>
      <path d="M512,384 L576,384 L576,512 L512,512 L512,384 z" fill="#60B241"/>
      <g>
        <path d="M512,128 L576,192 L128,192 L192,128 L512,128 z" clip-path="url(#Clip_1)" filter="url(#Shadow_2)" fill="rgba(0,0,0,0.5)"/>
        <path d="M192,128 L512,128 L576,192 L128,192 L192,128 z" fill="#418C27"/>
      </g>
      <g>
        <path d="M576,512 L512,576 L192,576 L128,512 L576,512 z" clip-path="url(#Clip_3)" filter="url(#Shadow_4)" fill="rgba(0,0,0,0.5)"/>
        <path d="M192,576 L512,576 L576,512 L128,512 L192,576 z" fill="#418C27"/>
      </g>
      <g>
        <path d="M512,320 L576,384 L256,384 L256,320 L512,320 z" clip-path="url(#Clip_5)" filter="url(#Shadow_6)" fill="rgba(0,0,0,0.5)"/>
        <path d="M256,320 L512,320 L576,384 L256,384 L256,320 z" fill="#418C26"/>
      </g>
    </g>
    <g>
      <path d="M832,512 L896,512 L896,640 L832,640 L832,512 z" fill="#60B241"/>
      <path d="M448,512 L512,512 L512,896 L448,896 L448,512 z" fill="#60B241"/>
      <g>
        <path d="M832,448 L896,512 L448,512 L512,448 L832,448 z" clip-path="url(#Clip_7)" filter="url(#Shadow_8)" fill="rgba(0,0,0,0.5)"/>
        <path d="M512,448 L832,448 L896,512 L448,512 L512,448 z" fill="#418C27"/>
      </g>
      <g>
        <path d="M896,640 L832,704 L496,704 L496,640 L896,640 z" clip-path="url(#Clip_9)" filter="url(#Shadow_10)" fill="rgba(0,0,0,0.5)"/>
        <path d="M496,704 L832,704 L896,640 L496,640 L496,704 z" fill="#418C27"/>
      </g>
    </g>
  </g>
</svg>
