<svg height="256" viewBox="0 0 256 256" width="256" xmlns="http://www.w3.org/2000/svg"><path d="m0 0h256v256h-256z" fill="#fff"/><path d="m0 0h256v256h-256z" fill="#1b1e1f"/><path d="m144.642 56.383c-3.431-5.945-9.777-9.608-16.643-9.608s-13.21 3.663-16.644 9.608c-9.691 16.786-21.646 37.495-30.206 52.321-6.899 11.951-6.899 26.673 0 38.623 8.55 14.812 20.494 35.494 30.18 52.273 3.439 5.955 9.792 9.625 16.67 9.625s13.233-3.67 16.672-9.625c9.686-16.779 21.627-37.461 30.18-52.275 6.899-11.948 6.899-26.67 0-38.621-8.56-14.826-20.515-35.535-30.209-52.321zm-12.557 7.25c-.843-1.459-2.399-2.358-4.086-2.358-1.685 0-3.243.899-4.087 2.358-9.691 16.786-21.646 37.495-30.206 52.321-4.309 7.463-4.309 16.658 0 24.123 8.553 14.812 20.494 35.494 30.18 52.273.848 1.469 2.416 2.375 4.113 2.375 1.696 0 3.265-.906 4.113-2.375 9.688-16.779 21.629-37.461 30.182-52.275 4.309-7.463 4.309-16.658 0-24.121z" fill="#96d04a"/></svg>