<?xml version="1.0" encoding="UTF-8"?>
<!DOCTYPE svg PUBLIC "-//W3C//DTD SVG 1.1//EN" "http://www.w3.org/Graphics/SVG/1.1/DTD/svg11.dtd">
<svg version="1.1" xmlns="http://www.w3.org/2000/svg" xmlns:xlink="http://www.w3.org/1999/xlink" x="0" y="0" width="512" height="512" viewBox="0, 0, 512, 512">
  <g id="レイヤー_1">
    <path d="M215.105,349.511 L190.127,444.202 L164.302,444.202 L230.153,194.562 L453.967,194.562 C453.967,194.562 479.792,194.562 472.98,220.387 L445.731,323.686 C438.919,349.511 413.094,349.511 413.094,349.511 z M444.885,228.995 C447.155,220.387 447.155,220.387 438.547,220.387 L249.166,220.387 L221.917,323.686 L411.298,323.686 C411.298,323.686 419.906,323.686 422.177,315.078 z" fill="#795733"/>
    <path d="M80.452,283.005 C54.627,283.005 61.439,257.18 61.439,257.18 L104.583,93.623 C111.395,67.798 137.22,67.798 137.22,67.798 L386.859,67.798 L380.047,93.623 L139.016,93.623 C130.408,93.623 128.137,102.231 128.137,102.231 C98.618,214.139 88.319,249.737 89.535,248.572 C89.535,248.572 87.264,257.18 95.872,257.18 C264.304,257.18 298.298,257.18 302.47,257.18 C311.079,257.18 311.079,257.18 313.349,248.572 L340.598,145.273 L366.423,145.273 L336.903,257.18 C330.091,283.005 304.266,283.005 304.266,283.005 z" fill="#6EE500"/>
  </g>
</svg>
