<?xml version="1.0" encoding="UTF-8"?>
<!DOCTYPE svg PUBLIC "-//W3C//DTD SVG 1.1//EN" "http://www.w3.org/Graphics/SVG/1.1/DTD/svg11.dtd">
<svg version="1.1" xmlns="http://www.w3.org/2000/svg" xmlns:xlink="http://www.w3.org/1999/xlink" x="0" y="0" width="512" height="512" viewBox="0, 0, 512, 512">
  <g id="Background">
    <rect x="0" y="0" width="512" height="512" fill="#000000" fill-opacity="0"/>
  </g>
  <g id="レイヤー_1">
    <path d="M194.593,349.511 L169.615,444.202 L143.79,444.202 L209.641,194.562 L433.456,194.562 C433.456,194.562 459.281,194.562 452.468,220.387 L425.22,323.686 C418.407,349.511 392.583,349.511 392.583,349.511 z M424.373,228.995 C426.644,220.387 426.644,220.387 418.035,220.387 L228.654,220.387 L201.405,323.686 L390.786,323.686 C390.786,323.686 399.395,323.686 401.665,315.078 z" fill="#000000"/>
    <path d="M80.452,283.005 C54.627,283.005 61.439,257.18 61.439,257.18 L104.583,93.623 C111.395,67.798 137.22,67.798 137.22,67.798 L386.859,67.798 L380.047,93.623 L139.016,93.623 C130.408,93.623 128.137,102.231 128.137,102.231 C98.618,214.139 88.319,249.737 89.535,248.572 C89.535,248.572 87.264,257.18 95.872,257.18 C264.304,257.18 298.298,257.18 302.47,257.18 C311.079,257.18 311.079,257.18 313.349,248.572 L340.598,145.273 L366.423,145.273 L336.903,257.18 C330.091,283.005 304.266,283.005 304.266,283.005 z" fill="#000000"/>
    <g id="icon" display="none">
      <path d="M-535.5,0.5 L-24.5,0.5 L-24.5,511.5 L-535.5,511.5 z" fill="#19254A"/>
      <path d="M-25,1 L-25,511 L-535,511 L-535,1 z M-24,0 L-536,0 L-536,512 L-24,512 z" fill="#000000"/>
      <path d="M-403.18,123.8 C-400.55,108.32 -383.42,100.42 -352.18,100.42 L-175.28,100.42 L-170.67,73.74 L-347.53,73.74 C-401.21,73.74 -431.18,90.54 -437.1,123.8 L-460.16,255.55 C-460.797,258.694 -461.132,261.892 -461.16,265.1 C-461.16,292.1 -436.78,305.61 -388.37,305.61 L-288.59,305.61 C-277.594,305.696 -266.61,304.84 -255.76,303.05 C-262.52,295.61 -268.43,287.68 -271.35,278.76 C-275.27,279.08 -279.48,279.25 -284.01,279.25 L-383.76,279.25 C-412.41,279.25 -426.58,272.66 -426.58,259.49 C-426.638,258.148 -426.527,256.804 -426.25,255.49 z" fill="#8CC63F"/>
      <path d="M-311.47,362.09 L-326.95,449.36 L-360.87,449.36 L-320.03,217.55 L-134.62,217.55 C-90.16,217.55 -72.37,234.68 -72.37,261.02 C-72.393,265.209 -72.727,269.391 -73.37,273.53 L-78.97,306.14 C-84.57,339.4 -108.97,362.14 -159.97,362.14 z M-107.29,273.49 C-106.919,271.425 -106.699,269.337 -106.63,267.24 C-106.63,248.47 -124.74,244.19 -158.99,244.19 L-290.76,244.19 L-306.86,335.74 L-160.64,335.74 C-131.99,335.74 -116.18,325.53 -112.88,306.43 z" fill="#AB7D60"/>
      <path d="M-199.33,256.19 L-185.49,179.13 L-219.09,179.13 L-232.92,256.19 C-235.45,269.43 -248.12,276.88 -271.31,278.76 C-268.39,287.68 -262.48,295.61 -255.72,303.05 C-222.52,297.29 -203.91,281.67 -199.33,256.19 z" fill="#8CC63F"/>
    </g>
  </g>
</svg>
