<?xml version="1.0" encoding="UTF-8"?>
<!DOCTYPE svg PUBLIC "-//W3C//DTD SVG 1.1//EN" "http://www.w3.org/Graphics/SVG/1.1/DTD/svg11.dtd">
<svg version="1.1" xmlns="http://www.w3.org/2000/svg" xmlns:xlink="http://www.w3.org/1999/xlink" x="0" y="0" width="256" height="256" viewBox="0, 0, 256, 256">
  <g id="Background">
    <rect x="0" y="0" width="256" height="256" fill="#FFFFFF"/>
  </g>
  <g id="レイヤー_1">
    <path d="M-0,-0 L256,-0 L256,256 L-0,256 z" fill="#1B1E1F"/>
    <path d="M144.642,56.383 C141.211,50.438 134.865,46.775 127.999,46.775 C121.133,46.775 114.789,50.438 111.355,56.383 C101.664,73.169 89.709,93.878 81.149,108.704 C74.25,120.655 74.25,135.377 81.149,147.327 C89.699,162.139 101.643,182.821 111.329,199.6 C114.768,205.555 121.121,209.225 127.999,209.225 C134.877,209.225 141.232,205.555 144.671,199.6 C154.357,182.821 166.298,162.139 174.851,147.325 C181.75,135.377 181.75,120.655 174.851,108.704 C166.291,93.878 154.336,73.169 144.642,56.383 z M132.085,63.633 C131.242,62.174 129.686,61.275 127.999,61.275 C126.314,61.275 124.756,62.174 123.912,63.633 C114.221,80.419 102.266,101.128 93.706,115.954 C89.397,123.417 89.397,132.612 93.706,140.077 C102.259,154.889 114.2,175.571 123.886,192.35 C124.734,193.819 126.302,194.725 127.999,194.725 C129.695,194.725 131.264,193.819 132.112,192.35 C141.8,175.571 153.741,154.889 162.294,140.075 C166.603,132.612 166.603,123.417 162.294,115.954 L132.085,63.633 z" fill="#96D04A"/>
  </g>
</svg>
